<?xml version="1.0" encoding="utf-8"?>
<!-- Generator: Adobe Illustrator 19.0.0, SVG Export Plug-In . SVG Version: 6.00 Build 0)  -->
<svg version="1.1" id="Layer_1" xmlns="http://www.w3.org/2000/svg" xmlns:xlink="http://www.w3.org/1999/xlink" x="0px" y="0px"
	 viewBox="0 0 500 500" style="enable-background:new 0 0 500 500;" xml:space="preserve">
<style type="text/css">
	.st0{fill-rule:evenodd;clip-rule:evenodd;fill:#D2AB67;}
	.st1{fill-rule:evenodd;clip-rule:evenodd;fill:#231F20;}
	.st2{fill-rule:evenodd;clip-rule:evenodd;fill:#EC7C23;}
	.st3{fill-rule:evenodd;clip-rule:evenodd;fill:#2C2A29;}
	.st4{fill-rule:evenodd;clip-rule:evenodd;fill:#EE7F1A;}
	.st5{fill-rule:evenodd;clip-rule:evenodd;fill:#8B5421;}
	.st6{fill-rule:evenodd;clip-rule:evenodd;fill:#985920;}
	.st7{fill:#231F20;}
</style>
<g id="XMLID_1_">
	<path id="XMLID_48_" class="st0" d="M114.8,292l0-0.1c0,0-0.4,0.2,1-1.5c0.5-0.6,0.9-1.1,1.3-1.6l1.9-2.4c0.4-0.5,0.4-0.6,0.8-0.8
		c0.4,0.6,1.6,7,1.7,8c-1.6-0.2-0.6-2.2-1.4-2.7l-3.1-0.8C116.6,290.7,115.7,292.3,114.8,292z M126.8,290.1c0.1,0.2,2.1,1.6,0.6,3.2
		c-1,1.1-2.6,0.6-4.1,0.4l0.9-7.3c1.6,0.1,4,0.3,3.5,2.5C127.6,289.6,127.2,289.7,126.8,290.1z M137.1,286.6c0.7,0,0.5-0.4,0.7,1.5
		c0.1,1.3,0.6,5.3,0.3,5.8l-0.5,0c-0.3-0.6-0.4-4.3-0.5-5.5L137.1,286.6z M135.2,296.3c-1.1,0-1.1-0.9-1.3-1.9
		c-0.5-2.3-0.5-4.9,0.2-7.2c0.2-0.7,0.2-0.8,1-0.8c-0.2,1.8-0.8,2.6-0.8,4.9C134.3,293.6,134.8,294.4,135.2,296.3z M144.2,285.3
		c0.7,0.1,0.4-0.5,0.8,1.5c0.1,0.7,0.3,1.3,0.4,1.9c0.2,1.1,0.6,2.7,0.7,3.8c-1-0.4-4.7-3.7-6-4.4l1,5.4l-0.6,0.1
		c-0.4-0.4-0.7-2.8-0.9-3.5c-0.2-1.1-0.6-2.7-0.7-3.8c0.7,0.3,2.3,1.6,3,2.2c0.6,0.5,2.3,1.9,3,2.2c-0.1-0.8-0.3-1.8-0.5-2.7
		l-0.4-2.1C144,285.2,144.2,285.3,144.2,285.3z M146.1,284.9c0.7-0.5,3.1-1.2,4.1-1.1c1.5,0.2,2.5,1.2,2.9,2.5
		c1.3,3.6-1.8,4.8-4.6,5.5C148,291,146.5,286.2,146.1,284.9z M114.6,284.1c0.8,0.2,0.6,0.3,0,2c-0.4,1.2-1.1,4.3-2,4.8
		c-0.9,0.5-2-0.1-2.5-0.6c-0.3-0.3-0.5-0.8,0-0.9c0.5-0.1,1.8,2.5,2.7-0.2C113.2,288,114,284.7,114.6,284.1z M103.1,287.2
		c-0.6-0.4-0.7,0,0.1-1.6c0.6-1.1,2.3-4.6,2.8-5.2c0.7,0.9,1.3,5.6,1.9,7.2c0.5-0.7,2.2-4.6,2.7-4.8l0.4,0.2c0,0.5-2.9,6-3.3,6.6
		c-0.1-0.1-0.1-0.1-0.2-0.3l-1.9-6.7c-0.4,1.2-1.3,2.4-1.8,3.6C103.6,286.5,103.5,287,103.1,287.2z M153.5,282
		c0.5,0.2,1.5,2.8,1.8,3.5c1.1,2.4,1.8,3.1,0.8,3.4c-0.5-0.6-1.3-2.7-1.7-3.5c-0.3-0.6-0.5-1.1-0.8-1.8
		C153.2,282.8,152.7,282.3,153.5,282z M157.6,279.9c0.9,0.3,2.7,1.7,3.5,2.3c0.7,0.5,2.9,1.8,3.3,2.4c-1.2,0.7-1.2-0.5-2.9-1.1
		l-2.6,1.5l0.2,2.7l-0.7,0.3L157.6,279.9z M103.8,279.3l0.5,0.3c-0.1,0.5-1.7,2.8-2.1,3.4c-0.6,1-1.6,2.7-3.5,2
		c-1.3-0.5-2.2-2.1-1.3-3.6c0.3-0.4,2.6-4.2,2.9-4.2c1.3-0.3-0.7,2.3-0.9,2.5c-0.6,0.9-2.2,2.7-1.5,4c0.3,0.5,1,1,1.9,0.8
		C101.2,284,102.4,281,103.8,279.3z M161.4,277.2c1.5-1.3,5.1,4.3,6,6.7c0.3,0.9,0.3,1-0.3,1.3c-0.5-0.7-0.8-3.6-3.8-6.5
		C162.8,278.5,161.6,277.6,161.4,277.2z M95.8,273.2c0.3,0.1,3.6,2.2,2.6,4.1c-1.4,2.6-3.6-0.2-4.6-0.5c-0.7,0.7-1.1,1.4-1.8,2.1
		c-0.3,0.3-1.8,0.9,0.2-1.4L95.8,273.2z M82.4,267.1c-0.7-2.9,3.7-3.8,4.2-1.1C87.3,269.1,83,269.5,82.4,267.1z M175.1,266.8
		c-0.4-2.9,4.1-3.2,4.4-0.5C179.7,269.3,175.4,269.4,175.1,266.8z M185.9,250.7c1.1,1.5,2.5,1.9,2.2,3.2c-0.4-0.1-0.4-0.2-0.7-0.5
		l-2-2.1c-0.7-0.8-1.7-0.8-3-1.1c-0.7-0.2-0.8-0.1-0.7-0.7c0.9-0.4,2.7,0.8,3.9,0.5c1.2-0.3,2.6-0.9,3.9-1.1
		C189.1,250.5,187.2,249.7,185.9,250.7z M189.5,247.6l-0.5,0c-0.2-0.4,0-1.2,0.1-1.7l-5.3-0.9c-1-0.1-1.3,0.1-1.2-0.8
		c1-0.2,5.1,0.9,6.5,1c0.5-1-0.1-1.1,0.6-1.5c0.7,0.2,0.5-0.3,0.2,1.9C189.9,246.1,189.8,247.1,189.5,247.6z M79.2,242.4
		c0.7,0,0.4-0.5,0.7,1.5c0.1,0.7,0.2,1.3,0.3,2c-1.1,0.2-6.6,1.2-7.3,0.9l0-0.5l6.5-1c0.1-0.5,0-0.9-0.1-1.4
		C79,243.3,78.9,242.8,79.2,242.4z M183.1,241.3l0-0.6c0.9-0.1,2.8,0.1,3.8,0.2c0.6,0,1.2,0.1,1.8,0.1c2.2,0.1,1.5,0,1.7,0.5
		c-0.2,0.4,0.5,0.4-1.7,0.3L183.1,241.3z M71.7,238.3c-0.8-5.3,7-6.2,7.7-1.3C80.2,242.3,72.4,243.1,71.7,238.3z M179.1,238.4
		c-0.8,10.6-3.8,18.3-9.7,26.3c-0.8,1-1.9,2.5-2.7,3.3c-0.6,0.6-0.9,1-1.5,1.6c-9.6,9.6-22.9,14.9-36.9,14.1
		c-25.5-1.5-46.7-23.3-45.1-50.9c1.5-25.4,23.4-46.6,50.8-45c9.8,0.6,18.9,4.1,26.2,9.7c1.3,1,3.7,3,4.8,4.2c0.5,0.6,1,0.9,1.5,1.5
		c4,4.8,6.8,8.6,9.2,14.7C178.2,223.9,179.7,231.3,179.1,238.4z M189.5,239.2l-0.3-0.4c0.2-0.6,1.6-1.5,0.3-2.4
		c-2-0.7-2.6,4.1-5.4,2.7c-2.4-1.2-0.1-4.6,0.6-3.9c0.4,0.4,0.1,0.3-0.6,1c-0.9,0.9-0.2,2.7,1.2,2.2c0.8-0.3,1.6-1.6,2.1-2.2
		C189.9,233.7,192.5,237.9,189.5,239.2z M183,230l0-0.5c0.6-0.4,6.1-0.7,7.2-0.7l0.1,0.1l0.1,0.1l0.2,0.9c0.1,1.2,0.3,2.6-0.8,3.2
		c-0.7,0.4-1.6,0.4-2.2-0.1c-0.8-0.6-0.5-1.1-0.9-1.9c-1.1,0.7-2.1,2.2-3.1,2.7c-0.7-1.4,2.7-2.6,3-4.1
		C185.6,229.9,183.5,230.3,183,230z M72.8,225.3c0.8,0.2,2.7,1.5,3.5,2c0.9,0.6,2.7,1.5,3.4,2.2l-0.1,0.1l-3.7,1.1
		c-1.2,0.3-2.7,0.8-3.9,1c0-1.1,0.3-0.8,2.7-1.4c1-0.2,2.6-0.4,3.2-1l-4-2.5C73.3,226.3,72.8,226.2,72.8,225.3z M186.5,223.8
		c0.1,0.9,0.8,2.8,0.5,3.4c-0.8,0.1-0.7-0.4-0.8-1.3c-0.1-0.7-0.3-1.3-0.4-1.9l-2.8,0.5l0.6,3.4l-0.6,0.1c-0.5-0.6-0.8-3.1-0.9-4.1
		l7.2-1.4l0.6,3.1c0.1,0.7,0.2,0.7-0.1,1.1c-0.5,0.1-0.4,0.5-0.7-1.3c-0.1-0.7-0.3-1.3-0.4-1.9L186.5,223.8z M74.2,222.6l2.1,0.5
		c0.4-0.8,0.5-1.9,0.7-2.7c0.2-0.8,0-0.6,0.7-0.5c0.4,0.5-0.5,2.7-0.6,3.4l2.7,0.7c0.4-0.8,0.5-2.9,1.1-3.3c0.8,0.2,0.6,0.1,0.1,1.9
		c-0.2,0.8-0.4,1.5-0.6,2.2l-7.1-1.8c0.1-0.7,0.3-1.5,0.5-2.1c0.2-0.6,0.2-1.6,0.7-1.9c0.6,0.2,0.6-0.2,0.2,1.5
		C74.5,221.3,74.3,221.9,74.2,222.6z M81.9,219.6l-5.4-2c-1.8-0.7-1.5-0.3-1.3-1.1l0.8,0.1c1.4,0.5,4.5,1.9,5.6,2l0.7-2.1
		c0.3-0.7-0.1-0.5,0.7-0.4C83.3,216.7,82,219.4,81.9,219.6z M182.3,219l5.2,0.4c1,0.1,0.9-0.1,1.1,0.8l-8-0.6
		c0.1-0.6,0.5-0.6,1.3-1.4c0.6-0.6,4.2-3.9,4.7-4.1c0.3,0.9,0,1-1.9,2.5C184.3,217.1,182.5,218.7,182.3,219z M178.8,215
		c0.4-0.5,2.6-1.4,3.4-1.7c0.7-0.3,1.1-0.5,1.8-0.8c1.7-0.8,1.3-0.8,1.7-0.2c-0.2,0.3,0,0.1-0.3,0.3l-3.1,1.5
		C180.1,215,179.2,215.8,178.8,215z M79.2,207.7c0.7,0.5,1.7,2.6,2.3,3.4c0.4,0.6,1.9,1,2.7,1.4c0.5,0.3,0.7,0.2,0.4,0.9
		c-0.8,0-2.3-1.2-3.3-1.3c-0.9-0.1-3.3,0.3-4.4,0.4c0.3-1.2,1-0.7,3.8-1.1C79.8,209.5,78.3,208.8,79.2,207.7z M179.3,211.6l3.9-2.1
		c0.7-0.4,0.8-0.7,1.2-0.1c-0.1,0.6-0.5,0.6-1.4,1.1c-0.6,0.3-1.1,0.6-1.7,1c-1,0.6-2.3,1.4-3.2,1.8c-0.1-1.2,2.2-5.7,2.2-7
		c-0.6,0.4-4.3,2.6-4.8,2.6l-0.3-0.5c0.5-0.4,6-3.6,6.4-3.7L179.3,211.6z M176.9,198.1l0.4,0.5c-0.9,1-4.3,3.1-4.5,4.1
		c-0.2,0.8,0.3,1.6,0.8,2c0.8,0.5,1.5,0.2,2.1-0.3l3.2-2.6c0.8-0.7,1.5-0.2,0.5,0.6c-2,1.6-5.4,5.2-7.1,1.9c-1.2-2.2,1.2-3.4,3.1-5
		C175.8,199,176.5,198.4,176.9,198.1z M90.8,193c0.2-0.4,2.8-3.2,4.5-1.7c1.8,1.6-0.3,3.5-1.4,4.1c0.4,1,1.6,1.9,2.1,2.8l-0.4,0.4
		C95,198.3,91.2,193.7,90.8,193z M96,188.5c0.9-0.5,2.6-2.3,4.1-1.6c1.1,0.5,1.9,2.4-0.1,3.7c0.6,0.5,3.1,1.1,4,1.4
		c-1.3,1.3-4.1-1.3-4.9-0.6c-0.2,0.3-0.4-0.4,0,0.5c0.1,0.3,1.6,1.9,1.6,2.5l-0.4,0.3C99.8,194.4,96.2,189.1,96,188.5z M105.8,182.5
		c4.9-1.4,7,6.2,2,7.5C102.9,191.3,100.7,184,105.8,182.5z M159,192.3c0.2-0.6,3.6-6.1,3.9-6.2c1.8-0.8-2.1,4.4-2.8,5.9
		c0.3,0.3,0.9,0.6,1.2,0.9c0.5,0.3,1.1,0.5,0.9,1C161.6,194.3,160.4,192.9,159,192.3z M151.7,188.2c0.6-0.6,6-4.8,6.6-5l-0.3,8.1
		c-1-0.2-0.6-0.5-0.6-3l-2.8-1.4c-0.9,0.4-1.4,1.2-2.3,1.5L151.7,188.2z M139.6,177.5c2.3-0.5,4.2,1.1,4.6,2.9
		c0.5,2.3-1,4.3-2.9,4.7C136.2,186.2,134.5,178.7,139.6,177.5z M145.2,186c0-0.8,1.8-5.8,2.1-7c0.9,0.6,2.3,5.7,3.1,6.7
		c0.8-1.3,1-3.9,1.8-5.2l0.5,0.1c0.1,0.5-1.3,4.3-1.6,5.4c-0.1,0.3-0.2,0.6-0.3,0.9c-0.2,0.7-0.4,0.6-0.4,0.7
		c-0.7-1.4-2.2-5.8-2.9-6.6c-0.4,0.7-0.6,1.8-0.9,2.6c-0.3,0.9-0.5,1.8-0.9,2.5L145.2,186z M111.2,180.4c0.4-0.3,3.1-1.2,3.5-1.1
		l0.1,0.5l-2.7,0.9c0,0.7,0.4,1.7,0.7,2.2c0.5-0.1,1-0.2,1.5-0.4c0.2-0.1,0.5-0.2,0.7-0.2c0.1,0,0.2-0.1,0.3-0.1
		c0.3,0,0.1,0,0.3,0.1c0.3,0.9-0.6,0.7-2.6,1.4c0.1,0.6,0.4,1.3,0.6,1.9c0.6,1.9,0.7,1.5,0,1.7c-0.5-0.3-0.6-1.1-0.8-1.7
		L111.2,180.4z M133.8,184.3c-0.1-1,0.1-2.6,0.2-3.7c0-0.7,0.1-1.3,0.1-2c0.1-2.2,0-1.4,0.5-1.6c0.5,0.2,0.5-0.4,0.3,1.8l-0.4,5.6
		L133.8,184.3z M116.7,178.8c0.6-0.3,3.7-1,4.1-0.8c0.1,0.8-0.5,0.7-1.4,0.9c-0.6,0.1-1.2,0.3-1.8,0.4c0.1,0.8,0.2,1.7,0.5,2.2
		c1,0,2.1-0.4,2.6-0.5c0.7-0.1,0.3-0.2,0.7,0.1c0,0.7,0.4,0.4-1.5,0.8c-0.6,0.1-1.2,0.2-1.8,0.4l0.6,2.7c0.8,0,2.9-0.8,3.5-0.4
		c0,0.7,0.2,0.5-1.7,0.9c-0.8,0.2-1.5,0.4-2.3,0.4C117.9,185.2,116.8,179.7,116.7,178.8z M123.2,183.1c0.4,0.3,0.7,0.8,1.4,0.9
		c0.7,0.1,1.3-0.3,1.5-0.9c0.3-1.3-1.4-2-2.2-2.5c-0.9-0.6-2-1.8-0.8-3c1-1,2.7-0.5,3.1,0.5l-0.2,0.3c-0.7-0.1-0.2-0.1-0.8-0.4
		c-1.1-0.6-2.1,0.3-1.6,1.3c0.3,0.6,2.1,1.3,2.8,2c2.4,2.4-2,5.2-3.5,2.2L123.2,183.1z M129.5,176.8c1.9-0.8,3.4,1.9,1.9,1.3
		c-0.4-0.1-0.7-0.9-1.7-0.6c-0.6,0.2-0.7,1-0.3,1.6c0.6,0.9,2,1.3,2.6,2.4c0.7,1.3-0.3,2.7-1.4,2.9c-2.2,0.3-3.2-2.1-2-1.7
		c0.4,0.1,0.5,0.9,1.5,1c0.8,0.1,1.4-0.4,1.4-1.1c0.1-1.2-1.6-2-2.4-2.7C128.2,179,128,177.4,129.5,176.8z M193.4,240.7
		c3.1-35.7-24.8-65-57.2-67.2c-9.9-0.7-18.8,0.7-27.2,3.9c-5.4,2.1-10.6,4.9-15.1,8.3c-1.4,1.1-3,2.3-4.2,3.4
		c-5.3,4.8-9.6,9.9-13.7,17.5c-8.5,15.7-9.4,34.7-3.1,51.3c2.9,7.8,6.6,13.3,11.8,19.3c4.1,4.8,10.6,10.1,17.5,13.7
		c16,8.3,34.1,9.5,51.2,3.1c9.5-3.5,16.5-8.7,23.3-15.6l3.6-4.2C187.6,264.9,192.3,253.6,193.4,240.7z"/>
	<path id="XMLID_55_" class="st1" d="M131.1,282.5c-2,0-9.9-0.6-12-1.6c-0.5-0.2-0.1,0-0.3-0.2l35.3-4.3
		C148.4,280.4,138.4,282.5,131.1,282.5z M104.9,274.3l18.2-10.3c6.1-3.5,12.1-6.8,18.3-10.4l31.9-18.1c0.8-0.5,4-2.5,4.7-2.5
		c0.4,11.9-2.5,20.9-8.5,29.6c-0.6,0.9-4.4,1.6-5.7,2l-48.4,12.8c-4.1,1.1-3.2,1.5-8.2-1.5c-0.4-0.3-0.7-0.4-1.1-0.7
		C105.3,274.7,105.2,274.8,104.9,274.3z M102.6,272.8c-0.8-0.5-3.4-2.7-3.8-3.4c0.3-0.5,1.3-1.7,1.7-2.3l12.6-16.1
		c7.1-9,14.4-18.5,21.5-27.4l21.5-27.5c1.5,0.7,4.5,3.1,5.7,4.2c4.2,3.8,6.1,5.9,9.2,10.9c0.8,1.3,3,5.2,3.4,6.7
		c-0.4,0.5-12.1,9.3-13.3,10.3l-22.5,17.2c-5.5,4.2-12.5,9.7-18,13.8c-1.5,1.1-2.9,2.2-4.4,3.4C114.2,264,103.2,272.6,102.6,272.8z
		 M90.5,258.8c-0.9-1.1-2.5-4.8-3-6.3c-4.7-12.4-4.1-27,2.3-38.6c2.7-4.9,3.6-5.9,6.8-9.7c0.4-0.4,0.8-0.8,1.2-1.2
		c0.1,1.3-0.6,5.3-0.8,6.9c-0.3,2.3-0.6,4.6-0.9,6.9c-0.6,4.7-1.2,9.4-1.8,14C93.8,233.7,90.8,258.2,90.5,258.8z M97.1,267.6
		c-0.8-0.4-3.2-3.5-3.9-4.4c-0.6-0.8,0.1-2.1,0.4-3.2l16.8-61.9c0.3-1.1,0.6-2.2,0.9-3.3c0.5-1.9,0.2-1.6,1.9-2.3
		c6.9-2.8,13.6-3.9,21.2-3.5c1.6,0.1,6.1,0.5,7.2,1.1c-0.4,1.1-2.1,3.7-2.7,4.8L97.1,267.6z M179.1,238.4c0.5-7.1-1-14.6-3.3-20.5
		c-2.4-6.1-5.2-9.9-9.2-14.7c-0.5-0.6-1-1-1.5-1.5c-1.1-1.2-3.5-3.2-4.8-4.2c-7.3-5.6-16.4-9.1-26.2-9.7
		c-27.4-1.6-49.3,19.6-50.8,45c-1.6,27.6,19.6,49.4,45.1,50.9c14,0.8,27.3-4.5,36.9-14.1c0.6-0.6,0.9-1,1.5-1.6
		c0.8-0.8,1.9-2.2,2.7-3.3C175.3,256.7,178.3,249.1,179.1,238.4z"/>
	<path id="XMLID_56_" class="st2" d="M102.6,272.8c0.6-0.2,11.6-8.7,13.6-10.3c1.5-1.2,2.9-2.3,4.4-3.4c5.5-4,12.5-9.6,18-13.8
		l22.5-17.2c1.2-1,12.9-9.7,13.3-10.3c-0.3-1.5-2.6-5.4-3.4-6.7c-3.1-4.9-5.1-7-9.2-10.9c-1.2-1.1-4.2-3.5-5.7-4.2l-21.5,27.5
		c-7.1,8.9-14.4,18.4-21.5,27.4l-12.6,16.1c-0.5,0.6-1.4,1.7-1.7,2.3C99.2,270,101.8,272.2,102.6,272.8z"/>
	<path id="XMLID_57_" class="st2" d="M138.9,194.9c0.6-1.2,2.3-3.7,2.7-4.8c-1.2-0.6-5.7-1.1-7.2-1.1c-7.7-0.4-14.3,0.7-21.2,3.5
		c-1.7,0.7-1.4,0.4-1.9,2.3c-0.3,1.1-0.6,2.2-0.9,3.3l-16.8,61.9c-0.3,1.1-0.9,2.4-0.4,3.2c0.7,1,3.1,4.1,3.9,4.4L138.9,194.9z"/>
	<path id="XMLID_58_" class="st2" d="M104.9,274.3c0.3,0.5,0.4,0.4,1.1,0.9c0.4,0.3,0.7,0.4,1.1,0.7c5,3,4.1,2.6,8.2,1.5l48.4-12.8
		c1.3-0.3,5.1-1,5.7-2c6-8.7,8.8-17.8,8.5-29.6c-0.7,0-3.9,2-4.7,2.5l-31.9,18.1c-6.2,3.6-12.2,6.8-18.3,10.4L104.9,274.3z"/>
	<path id="XMLID_61_" class="st2" d="M224.7,202.5c-0.2-1.2-0.1-23.6,0-24.2l3.2,0l0,21.6l10.8,0c0.2,0.7,0.2,1.9,0,2.6L224.7,202.5
		z M250.3,174l-33.6,0c-0.3,1.4-0.1,32-0.1,33.9l33.8,0C250.4,206.2,250.6,175.2,250.3,174z"/>
	<path id="XMLID_64_" class="st2" d="M224.7,264.7l3.2,0c0.2,1.5,0,11.5,0,13.9c0,4.5,1.4,8.2,6,8.1c7.4,0,6.2-8.6,6.2-15
		c0-2-0.2-5.1,0-7l3.2,0c0.2,1.7,0.1,15-0.1,16.8c-0.7,4.9-3.9,7.7-9.1,7.8c-5.5,0.1-8.5-2.7-9.3-7.7
		C224.5,280,224.4,266.3,224.7,264.7z M250.4,260.3l-33.8,0l0,33.9l33.9,0L250.4,260.3z"/>
	<path id="XMLID_67_" class="st2" d="M228,236.1l0,9.6l-3.2,0l-0.1-23.9c2.7-0.6,7.6-0.7,10.2-0.1c2.8,0.7,5,2.5,5.4,5.5
		c0.6,3.6-1.1,6.1-3.2,7.4C234.2,236.4,231.6,236.2,228,236.1z M216.5,251.2l33.9,0v-33.9l-33.9,0V251.2z"/>
	<path id="XMLID_70_" class="st1" d="M193.4,240.7c-1.1,12.8-5.8,24.2-13.1,33.5l-3.6,4.2c-6.8,6.8-13.8,12.1-23.3,15.6
		c-17.1,6.3-35.2,5.2-51.2-3.1c-6.9-3.6-13.3-8.8-17.5-13.7c-5.2-6-8.9-11.6-11.8-19.3c-6.2-16.6-5.3-35.6,3.1-51.3
		c4.1-7.6,8.4-12.6,13.7-17.5c1.3-1.2,2.8-2.4,4.2-3.4c4.5-3.4,9.7-6.3,15.1-8.3c8.4-3.2,17.2-4.5,27.2-3.9
		C168.6,175.7,196.5,205,193.4,240.7z M67.5,235.7c0,2.4,0.3,5.1,0.5,7.4c0.5,6.2,2.7,13.1,5.1,18.6l1.9,3.9
		c1.3,2.2,1.8,3.6,3.8,6.2c1.3,1.8,1.7,2.5,3.3,4.5c1.8,2.2,3.8,4.1,5.7,6.1c2.2,2.2,6.3,5.2,8.9,6.9l5,2.9
		c5.2,2.6,8.4,3.9,14.3,5.4c9.5,2.4,20.7,2.4,30.2,0c5.7-1.4,9.2-2.8,14.3-5.4c0.5-0.3,0.8-0.5,1.3-0.7c0.4-0.2,0.8-0.4,1.3-0.7
		c3.3-2,7.6-4.9,10.3-7.5c0.4-0.4,0.7-0.5,1.1-0.9c3.3-3.3,6.5-6.6,9.2-10.6c2-3,4.3-6.8,5.7-10.1c1.9-4.6,2.8-6.7,3.9-11.9
		c2.6-12.2,2.1-19.8-0.8-31.5l-2-6c-0.2-0.5-0.4-1-0.6-1.4c-1.5-3.8-4.1-8.2-6.4-11.6c-1-1.6-3.9-5.2-5.3-6.6c-3-3-3.2-3.6-7.2-6.8
		c-0.4-0.3-0.7-0.5-1.1-0.9c-0.4-0.3-0.7-0.6-1.1-0.9c-3.5-2.6-7.2-4.7-11.3-6.6c-3-1.4-9-3.4-11.9-4c-11.9-2.6-23.2-2.1-34.7,1.8
		c-5.5,1.8-11.3,4.7-15.9,8c-2.6,1.9-4.2,3-6.6,5.3l-3.9,3.9c-0.6,0.7-1.3,1.3-1.9,2.1l-2.6,3.4C71.9,208.7,67.5,222.4,67.5,235.7z"
		/>
	<path id="XMLID_71_" class="st2" d="M90.5,258.8c0.3-0.6,3.3-25.1,3.7-27.9c0.6-4.7,1.2-9.3,1.8-14c0.3-2.3,0.6-4.6,0.9-6.9
		c0.2-1.6,0.9-5.6,0.8-6.9c-0.3,0.4-0.8,0.7-1.2,1.2c-3.1,3.8-4.1,4.8-6.8,9.7c-6.3,11.6-7,26.2-2.3,38.6
		C88,254,89.6,257.7,90.5,258.8z"/>
	<path id="XMLID_72_" class="st0" d="M256.8,289.3c0,0.6,0.7,0.5,1.4,0.5c0.6,0,1.2,0,1.8,0c0.4-1.7,0-14.5,0-17.6l-0.2-3.7l3.1,5.5
		c1,1.8,2.2,3.5,3.3,5.3c0.6,0.9,1.1,1.7,1.7,2.6l3.3,5.3c0.3,0.5,0.5,0.9,0.8,1.3c0.9,1.6,0.5,1.2,4.1,1.2V264h-3.2l0,14.7
		c0,1.2,0.3,4.2,0.3,6.1c-0.1-0.1-0.1-0.1-0.2-0.3l-1.2-2.4c-1.3-2.5-6.5-10.8-8-13.2c-0.6-0.9-1.1-1.6-1.6-2.5
		c-1.9-3.1-0.6-2.5-5.3-2.5V289.3z"/>
	<path id="XMLID_75_" class="st0" d="M259,191.5c0-11.3,9.5-13.7,14.1-7.8c2.9,3.6,2.8,10.7,0,14.7c-2.9,4.2-9.1,4.2-12,0.1
		C259.9,196.7,259,194.3,259,191.5z M255.3,191.2c0,1.2,0.2,3,0.5,4.1c0.3,1.1,0.8,2.5,1.3,3.4c1.1,1.9,2.7,3.5,4.8,4.5
		c4.7,2.1,10.2,1.2,13.7-2.8c4.2-4.7,4.6-15.4-1.4-20.3c-4.9-4-12.9-2.9-16.5,2.4C256.2,185,255.3,188.1,255.3,191.2z"/>
	<path id="XMLID_78_" class="st0" d="M345.9,276h-3.7v-9.2c3.2-0.3,6.1-0.8,8.2,1.7C352.2,270.6,351.3,276,345.9,276z M338.8,264.3
		v25.5c2.1,0,3.4,0.3,3.4-0.5v-10.7c3.7,0,6.7-0.4,7.8,3.8l1.4,5.5c0.2,0.7,0.5,1.3,0.6,1.8c4.3,0,3.6,0.2,3.1-1.2
		c-1-2.9-1.6-10.2-5.1-11c0.4-0.5,1.1-0.6,1.6-1c0.6-0.4,1.1-0.7,1.5-1.3c1.3-1.8,1.5-2.5,1.5-4.8c0-2.2-1.2-4-2.5-5
		c-3.1-2.2-7-1.6-10.6-1.5C340.5,264.1,339.7,264.3,338.8,264.3z"/>
	<path id="XMLID_79_" class="st0" d="M380.5,246.4c0,0.7,0.7,0.5,2.3,0.5c0.4,0,0.5-0.1,0.5-0.5v-16.3c0-1.7-0.2-2.8-0.2-4.4
		c0.1,0.1,0.1,0.1,0.2,0.3c1,1.9,2.2,5.3,3.7,7.8c1.4,2.4,2.8,5.7,4.3,8c0.3,0.5,0.4,0.8,0.7,1.3c2.4,4.3,1.1,3.8,4.5,3.8
		c0.4,0,0.5-0.1,0.5-0.5v-24.8c0-0.7-0.9-0.5-2.8-0.5v16.3c0,1.7,0.2,2.8,0.2,4.4l-10.6-20.7h-3.2V246.4z"/>
	<path id="XMLID_82_" class="st0" d="M368.3,244.4c-10.4,0-8.8-23.9,1.5-20.7c4.9,1.5,5.8,9.5,4.8,14
		C373.8,240.8,372,244.4,368.3,244.4z M358.2,233.5c0,4,0.5,6.7,2.4,9.6c4.8,7.4,17.5,5.3,17.5-9.6c0-13.7-12.4-16.2-17.4-8.8
		C359.3,226.8,358.2,230.1,358.2,233.5z"/>
	<path id="XMLID_85_" class="st0" d="M281.7,244.4c-2.6,0-4.1-1.2-5.2-3c-2.5-4-2.4-11.2,0.1-15c3.6-5.4,11.7-3.7,11.7,7.9
		C288.2,238.5,286.3,244.4,281.7,244.4z M271.5,232.7c0,4.1,0,7.3,2.5,10.7c2.2,2.9,4,3.8,7.7,3.8c2,0,3.7-0.8,5-1.9
		c5.7-4.7,5.6-15.5,1.9-20.9c-3.6-5.2-12.8-5.9-16.4,3.7C271.9,229.2,271.5,231.3,271.5,232.7z"/>
	<path id="XMLID_88_" class="st0" d="M262.5,233.1h-3.2v-9.2c1.9-0.2,3.5-0.6,5.3,0.2C268.5,226,267.4,233.1,262.5,233.1z
		 M256.4,221.9v24.5c0,0.7,1,0.5,2.9,0.5v-10.7c0-0.6,0.5-0.5,1.8-0.5c5.4,0,4.8,4.5,6.1,9.7c0.4,1.8,0.2,1.5,3,1.5
		c0.8,0,0.1-1-0.4-3c-0.9-4-0.7-7.1-3.6-9.1c-0.2-0.1-0.2-0.1-0.3-0.3c1.1-0.3,2.2-1.4,2.9-2.4c2.5-3.7,1.2-11.1-5.8-11.1
		C262,220.9,256.4,220.8,256.4,221.9z"/>
	<path id="XMLID_89_" class="st0" d="M318,264.5v24.8c0,0.4,0.1,0.5,0.5,0.5h14.1v-2.9H322c-0.4,0-0.5-0.1-0.5-0.5
		c0-10.1-0.7-8.7,2.1-8.7h5.5c2.7,0,2.3,0.6,2.3-2.8h-10v-8h10.1c0.7,0,0.5-0.8,0.5-2.5c0-0.4-0.1-0.5-0.5-0.5h-13.2
		C318.1,264,318,264.1,318,264.5z"/>
	<path id="XMLID_90_" class="st0" d="M307.4,203.9h14.1c0.7,0,0.5-0.8,0.5-2.5c0-0.4-0.1-0.5-0.5-0.5h-10.7v-9h9.5
		c0.7,0,0.5-1,0.5-2.9h-10v-8h10.6c0-1.9,0.3-2.9-0.5-2.9h-13.5V203.9z"/>
	<path id="XMLID_91_" class="st1" d="M224.7,264.7c-0.2,1.6-0.1,15.3,0.1,16.9c0.8,5,3.8,7.8,9.3,7.7c5.2-0.1,8.4-3,9.1-7.8
		c0.3-1.7,0.4-15.1,0.1-16.8l-3.2,0c-0.2,1.8,0,5,0,7c0,6.4,1.3,15-6.2,15c-4.6,0-6-3.7-6-8.1c0-2.5,0.1-12.4,0-13.9L224.7,264.7z"
		/>
	<path id="XMLID_92_" class="st0" d="M301,289.8c4.7,0,2.7,0.9,5.5-6.2c0.4-1.1,0.8-2.1,1.2-3.3l5.2-14.6c0.2-0.6,0.5-1.1,0.5-1.8
		h-3.7c-0.1,0.8-0.6,1.9-0.9,2.7l-1.8,5.5c-0.8,2.5-2.1,5.7-2.8,8.1l-1.2,4.3c-0.1,0.3-0.1,0.4-0.2,0.7l-0.3,0.6
		c-1.1-4.5-4.2-14.6-5.7-19.1c-0.3-1-0.6-1.8-0.9-2.8h-3.7c0,0.8,1.7,5.4,2.1,6.5l5.3,16.2C300,288.1,300.3,289.8,301,289.8z"/>
	<path id="XMLID_93_" class="st0" d="M290.2,203.9h3.7l9.2-25.8h-3.5c-0.7,1.3-6.5,18.9-6.9,20.5l-0.4,1.4c-0.2-0.9-0.5-1.8-0.8-2.8
		c-0.3-0.9-0.5-1.9-0.8-2.9l-4.7-15.2c-0.4-1.4,0.1-1.1-3.9-1.1c0,1.2,4.5,14.1,5.1,16l2.1,6.5C289.5,201.6,290,202.9,290.2,203.9z"
		/>
	<path id="XMLID_96_" class="st1" d="M216.7,174l33.6,0c0.3,0.2,0.2,0,0.3,0.5l0,0.4l-0.1,33.1c-1.2,0.3-33.4,0.2-34.1,0
		c-0.2-2,0-14,0-17.1c0-2.2-0.2-14.1,0-16.1C216.4,174.1,216.2,174.2,216.7,174z M215.1,174v34c0,0.6,0.4,1.2,0.9,1.2h34.8
		c0.4,0,0.9-0.6,0.9-0.9v-34.7c0-0.4-0.6-0.9-0.9-0.9H216C215.5,172.8,215.1,173.4,215.1,174z"/>
	<path id="XMLID_99_" class="st1" d="M216.6,260.4l33.8,0l0.2,2c0,4.7,0.2,30.8-0.1,32c-1,0.2-33.5,0.2-34,0
		c-0.3-1.4,0-27.3-0.1-32.1c0-0.3,0-0.8,0-1.1L216.6,260.4z M215.1,260v34.4c0,0.7,0.5,1.2,1.2,1.2h34.2c0.6,0,1.2-0.4,1.2-0.9V260
		c0-0.4-0.6-0.9-0.9-0.9H216C215.7,259.1,215.1,259.7,215.1,260z"/>
	<path id="XMLID_102_" class="st1" d="M250.4,251.2l-33.9,0l-0.2-0.9c0-4.9-0.1-31.9,0.1-33.1c0.6-0.2,33-0.3,34,0
		c0.3,1.5,0.1,6.7,0.1,8.5C250.6,227.3,250.8,250.5,250.4,251.2z M215.1,217.1v34.4c0,0.4,0.6,0.9,0.9,0.9h34.8
		c0.4,0,0.9-0.6,0.9-0.9v-34.7c0-0.5-0.7-0.9-1.2-0.9h-34.2C215.6,215.9,215.1,216.4,215.1,217.1z"/>
	<path id="XMLID_105_" class="st0" d="M408,224.5l0.8,2.9c0.3,1,0.5,1.9,0.8,2.9c0.2,0.9,0.5,1.9,0.8,2.9c0.3,1.1,0.6,1.9,0.9,3
		h-6.3c0-0.7,1.3-4.8,1.6-5.8C407.1,228.3,407.5,226.6,408,224.5z M399.4,246.9c2.3,0,2.5,0.2,2.8-0.6c0.1-0.3,0.2-0.7,0.3-1.1
		l1.8-6.4h7.5c0.3,1.4,0.8,2.9,1.2,4.2c0.2,0.8,0.4,1.5,0.6,2.1c0.6,2.2,0,1.8,3.1,1.8c0.8,0,0.1-1.4-0.3-2.9
		c-0.3-1-0.6-2.2-0.9-3.2l-4.7-16.3c-0.3-1.1-0.7-2.2-1-3.3h-3.4l-3.9,13c-0.7,2.1-1.1,4.4-1.8,6.6l-1.5,4.8
		c-0.1,0.2-0.2,0.8-0.3,0.8C399,246.6,398.9,246.9,399.4,246.9z"/>
	<path id="XMLID_106_" class="st0" d="M360.5,270.5c0,5.8,5.6,6.7,8.9,8.4c1.1,0.6,2.6,2,2.6,3.2c0,1.7,0.1,2.7-1.5,4
		c-3.4,2.8-9.3-0.5-9.7-0.5c-0.2,0.8-0.7,2-0.8,2.9c2.2,0.5,1.5,1.5,7.4,1.5c8.3,0,10.5-9.2,5.5-13c-2.4-1.8-6.2-2.6-7.9-4.2
		c-2.7-2.6-0.4-7.8,6.4-6.1c0.4,0.1,0.8,0.2,1.2,0.4c0.5,0.2,0.5,0.3,1.1,0.4c0.2-2.3,2.5-2.7-1.7-3.6
		C366.7,262.8,360.5,264.7,360.5,270.5z"/>
	<path id="XMLID_109_" class="st1" d="M228,224c4.4-0.8,9.4,0,9.1,4.9c-0.2,4.2-4.9,5.6-9.1,4.5L228,224z M228,236.1
		c3.6,0.2,6.2,0.3,9.1-1.5c2.1-1.3,3.8-3.8,3.2-7.4c-0.5-3-2.6-4.8-5.4-5.5c-2.6-0.6-7.5-0.5-10.2,0.1l0.1,23.9l3.2,0L228,236.1z"/>
	<path id="XMLID_110_" class="st0" d="M308.3,221.6v24.8c0,0.4,0.1,0.5,0.5,0.5h11.5c0.7,0,0.5-1,0.5-2.9h-9.4v-9.2h8.3V232h-8.3v-8
		h8.9c0-1.9,0.3-2.9-0.5-2.9h-11C308.4,221.1,308.3,221.2,308.3,221.6z"/>
	<path id="XMLID_111_" class="st0" d="M420.7,289.8c3.7,0,3.4,0.3,3.4-1.2l0-9.4c0-0.7,0.4-1.1,0.7-1.6c0.3-0.6,0.6-1,0.9-1.6
		c0.6-1,6.7-11.2,6.9-12h-3.7l-1.6,2.9c-0.7,1.2-4.5,8.7-4.5,9.3l-6.3-12.1h-3.8c0.2,0.8,2.5,4.7,2.9,5.5l4.5,8.1
		c0.8,1.3,0.6,1.7,0.6,3.7C420.5,283.6,420.3,288,420.7,289.8z"/>
	<path id="XMLID_112_" class="st0" d="M349.7,193.5v10.4h3.4v-10.4c0-0.7,1.6-3.1,2-3.9l6.2-10.7c0.6-1,0.1-0.7-3.2-0.7
		c-0.5,0-1.5,2.3-1.7,2.9c-1.3,2.6-2.7,4.9-4,7.7c-0.2,0.4-0.6,1.3-0.7,1.7c-0.4-0.3-4-7.9-4.6-9.2c-0.6-1.1-1.1-2.1-1.6-3.1h-3.8
		c0.2,0.8,0.6,1.3,1,1.9c0.4,0.7,0.7,1.3,1,1.9c1.4,2.4,2.7,5.1,4.2,7.5c0.4,0.6,0.6,1.3,1,1.9C349,191.8,349.7,192.9,349.7,193.5z"
		/>
	<path id="XMLID_113_" class="st0" d="M390,267h7.8v22.4c0,0.6,0.7,0.5,1.4,0.5c0.7,0,1.3,0,2,0c0.4-1.7,0.2-19.6,0.2-22.9h7.7V264
		h-19V267z"/>
	<path id="XMLID_114_" class="st0" d="M337.3,227.7c0,7.9,9.8,6.5,9.8,11.8c0,4.5-3.1,5.5-6.9,4.5c-1.6-0.5-1.9-1-2.6-1.2
		c-0.2,0.7-0.6,2-0.6,2.6c0,1.2,8.5,4.2,12-1.3c1.2-2,1.5-4.9,0.6-7.3c-1.9-5-9.2-4.5-9.2-8.9c0-1.2,0-2.4,1.1-3.3
		c2-1.8,5.1-0.8,7,0.3c0-0.4,0.6-2.5,0.8-2.8c-2.9-1.9-7.4-1.9-9.9,0.6C338.3,223.7,337.3,225.5,337.3,227.7z"/>
	<path id="XMLID_115_" class="st0" d="M322.6,227.4c0,8.8,9.8,6.3,9.8,12.6c0,2.3-1.5,4-3.5,4.3c-2.7,0.4-4.2-0.6-6-1.5
		c-0.2,0.4-0.7,2.4-0.8,2.9c0.4,0.2,0.8,0.4,1.1,0.6c0.4,0.2,0.8,0.3,1.2,0.5c2.9,0.9,6.6,0.7,8.9-1.6c2.8-2.8,3.1-9.5-2.2-12.2
		c-2.3-1.2-5.7-2.2-5.7-5.5c0-2.4,1.7-3.8,4.3-3.8c1.8,0,2.7,0.6,3.8,1.2c0.2-0.5,0.8-2.3,0.8-2.9c-0.5-0.1-1.8-1.2-4.8-1.2
		C325.7,220.6,322.6,223.5,322.6,227.4z"/>
	<path id="XMLID_116_" class="st0" d="M293.8,221.6v24.8c0,0.7,0.9,0.5,2.6,0.5c0.4,0,0.5-0.1,0.5-0.5v-11.2h8.1v-2.8h-8.1V224h8.7
		v-2.9h-11.3C293.9,221.1,293.8,221.2,293.8,221.6z"/>
	<path id="XMLID_117_" class="st0" d="M327.6,203.9h13.9c0.4,0,0.5-0.1,0.5-0.5V201h-11v-22.9h-3.4V203.9z"/>
	<path id="XMLID_118_" class="st3" d="M224.7,202.5l14.1,0c0.1-0.7,0.2-1.9,0-2.6l-10.8,0l0-21.6l-3.2,0
		C224.5,178.8,224.5,201.2,224.7,202.5z"/>
	<path id="XMLID_119_" class="st0" d="M419.2,221.6v24.8c0,0.4,0.1,0.5,0.5,0.5H431c0.7,0,0.5-1,0.5-2.9h-9.2v-22.4
		c0-0.7-0.9-0.5-2.6-0.5C419.3,221.1,419.2,221.2,419.2,221.6z"/>
	<path id="XMLID_120_" class="st0" d="M283.8,289.3c0,0.8,1.9,0.5,3.4,0.5c0.4-1.7,0.2-21.8,0.2-25.3c0-0.8-1.4-0.5-3.5-0.5V289.3z"
		/>
	<path id="XMLID_121_" class="st2" d="M131.1,282.5c7.3,0,17.3-2.2,23-6.1l-35.3,4.3c0.2,0.2-0.2,0,0.3,0.2
		C121.2,281.9,129.2,282.5,131.1,282.5z"/>
	<path id="XMLID_122_" class="st0" d="M381.9,289.3c0,0.4,0.1,0.5,0.5,0.5h2.9V264h-3.4V289.3z"/>
	<path id="XMLID_123_" class="st4" d="M228,224l0,9.4c4.3,1.1,8.9-0.4,9.1-4.5C237.4,224,232.4,223.2,228,224z"/>
	<path id="XMLID_124_" class="st0" d="M352.8,246.4c0,0.7,0.8,0.5,2.5,0.5c0.4,0,0.5-0.1,0.5-0.5v-25.3h-2.9V246.4z"/>
	<path id="XMLID_125_" class="st0" d="M105.7,183.3c-4.1,1.5-1.6,7.5,2.3,5.9C111.7,187.6,109.5,181.9,105.7,183.3z"/>
	<path id="XMLID_126_" class="st0" d="M139.7,178.2c-4.1,1.1-2.6,7.1,1.5,6.1c1.5-0.3,2.7-2,2.3-3.8
		C143.1,179.1,141.6,177.7,139.7,178.2z"/>
	<path id="XMLID_127_" class="st0" d="M74.8,234.6c-4.2,1.2-2.4,7.1,1.7,6C80.2,239.7,78.9,233.5,74.8,234.6z"/>
	<path id="XMLID_128_" class="st0" d="M148.9,290.9c2.1-0.3,4.5-1.6,3.6-4.2c-0.9-2.7-3.1-2.2-5.5-1.4L148.9,290.9z"/>
	<path id="XMLID_129_" class="st5" d="M216.5,251.2v-33.9l33.9,0v33.9c0.4-0.7,0.2-23.9,0.2-25.5c0-1.9,0.2-7.1-0.1-8.5
		c-1-0.2-33.5-0.2-34,0c-0.2,1.2-0.1,28.1-0.1,33.1L216.5,251.2z"/>
	<path id="XMLID_130_" class="st5" d="M250.4,260.3l0,33.9l-33.9,0l0-33.9l-0.2,0.8c0,0.3,0,0.8,0,1.1c0,4.9-0.2,30.7,0.1,32.1
		c0.6,0.2,33,0.3,34,0c0.3-1.3,0.1-27.3,0.1-32L250.4,260.3z"/>
	<path id="XMLID_133_" class="st1" d="M74.8,234.6c4.1-1.1,5.4,5.1,1.7,6C72.4,241.7,70.6,235.8,74.8,234.6z M71.7,238.3
		c0.7,4.8,8.5,4.1,7.7-1.3C78.7,232.1,70.9,232.9,71.7,238.3z"/>
	<path id="XMLID_136_" class="st1" d="M139.7,178.2c1.9-0.5,3.4,0.8,3.8,2.3c0.4,1.9-0.8,3.5-2.3,3.8
		C137.1,185.4,135.6,179.3,139.7,178.2z M139.6,177.5c-5.1,1.1-3.4,8.7,1.7,7.6c1.9-0.4,3.4-2.4,2.9-4.7
		C143.8,178.6,141.9,177,139.6,177.5z"/>
	<path id="XMLID_139_" class="st1" d="M105.7,183.3c3.8-1.4,6,4.3,2.3,5.9C104.1,190.9,101.6,184.8,105.7,183.3z M105.8,182.5
		c-5.1,1.5-2.9,8.8,2,7.5C112.7,188.7,110.7,181.1,105.8,182.5z"/>
	<path id="XMLID_140_" class="st6" d="M250.3,174c0.3,1.2,0.1,32.2,0.1,34l-33.8,0c0-1.9-0.2-32.6,0.1-33.9c-0.4,0.2-0.2,0-0.3,0.7
		c-0.1,2,0,13.9,0,16.1c0,3.1-0.2,15.1,0,17.1c0.7,0.2,32.9,0.3,34.1,0l0.1-33.1l0-0.4C250.4,174,250.6,174.2,250.3,174z"/>
	<path id="XMLID_141_" class="st1" d="M103.1,287.2c0.4-0.2,0.5-0.7,0.7-1.1c0.6-1.2,1.4-2.4,1.8-3.6l1.9,6.7
		c0.1,0.2,0.1,0.2,0.2,0.3c0.4-0.5,3.3-6.1,3.3-6.6l-0.4-0.2c-0.5,0.3-2.2,4.1-2.7,4.8c-0.6-1.6-1.2-6.3-1.9-7.2
		c-0.5,0.6-2.2,4-2.8,5.2C102.4,287.2,102.5,286.8,103.1,287.2z"/>
	<path id="XMLID_144_" class="st1" d="M147,285.3c2.4-0.8,4.6-1.3,5.5,1.4c0.9,2.6-1.5,3.9-3.6,4.2L147,285.3z M146.1,284.9
		c0.4,1.3,1.9,6.2,2.5,6.9c2.8-0.7,5.9-1.9,4.6-5.5c-0.4-1.2-1.4-2.3-2.9-2.5C149.2,283.7,146.9,284.4,146.1,284.9z"/>
	<path id="XMLID_148_" class="st1" d="M124.5,290.4c1.4,0,2.9,0.4,2.6,1.9c-0.2,1.3-1.7,1.1-3,0.9L124.5,290.4z M124.9,287.3
		c1,0,1.4,0.1,2.1,0.7c0.2,1.6-0.9,2.1-2.4,1.6L124.9,287.3z M126.8,290.1c0.4-0.4,0.8-0.5,0.9-1.2c0.4-2.2-2-2.3-3.5-2.5l-0.9,7.3
		c1.5,0.2,3.1,0.7,4.1-0.4C128.9,291.7,127,290.3,126.8,290.1z"/>
	<path id="XMLID_149_" class="st1" d="M146.1,292.5c-0.1-1.1-0.5-2.7-0.7-3.8c-0.1-0.7-0.3-1.3-0.4-1.9c-0.4-2-0.1-1.4-0.8-1.5
		c0,0-0.2-0.1-0.1,0.8l0.4,2.1c0.2,0.9,0.4,1.8,0.5,2.7c-0.6-0.3-2.3-1.7-3-2.2c-0.7-0.6-2.3-1.9-3-2.2c0.1,1.1,0.5,2.6,0.7,3.8
		c0.1,0.6,0.5,3,0.9,3.5l0.6-0.1l-1-5.4C141.4,288.8,145.1,292.1,146.1,292.5z"/>
	<path id="XMLID_150_" class="st1" d="M181.6,204.6c-0.5,0.1-6,3.3-6.4,3.7l0.3,0.5c0.5-0.1,4.2-2.2,4.8-2.6c0,1.4-2.3,5.8-2.2,7
		c1-0.4,2.2-1.2,3.2-1.8c0.5-0.3,1.1-0.6,1.7-1c1-0.5,1.3-0.5,1.4-1.1c-0.4-0.5-0.5-0.3-1.2,0.1l-3.9,2.1L181.6,204.6z"/>
	<path id="XMLID_153_" class="st1" d="M187.2,229.8l2.3-0.3c0.5,1,0.5,3-0.8,3.2C187.2,233,187,231.1,187.2,229.8z M183,230
		c0.6,0.3,2.6-0.1,3.5-0.1c-0.3,1.5-3.7,2.7-3,4.1c0.9-0.5,2-2,3.1-2.7c0.4,0.8,0.1,1.3,0.9,1.9c0.6,0.4,1.5,0.5,2.2,0.1
		c1.1-0.7,0.9-2,0.8-3.2l-0.2-0.9l-0.1-0.1l-0.1-0.1c-1.1,0-6.6,0.3-7.2,0.7L183,230z"/>
	<path id="XMLID_154_" class="st1" d="M145.2,186l0.5,0.2c0.5-0.7,0.7-1.6,0.9-2.5c0.3-0.8,0.5-1.9,0.9-2.6c0.7,0.8,2.2,5.2,2.9,6.6
		c0.1,0,0.2,0,0.4-0.7c0.1-0.3,0.2-0.6,0.3-0.9c0.3-1.1,1.7-4.8,1.6-5.4l-0.5-0.1c-0.9,1.2-1,3.9-1.8,5.2c-0.8-1-2.3-6.1-3.1-6.7
		C147,180.2,145.1,185.3,145.2,186z"/>
	<path id="XMLID_157_" class="st1" d="M97.1,188.7c0.7-0.6,2.3-1.9,3.2-0.7c0.8,1.3-1,2.4-1.8,2.7C98,190.5,97.2,189.2,97.1,188.7z
		 M96,188.5c0.2,0.6,3.8,5.8,4.3,6.1l0.4-0.3c0-0.6-1.5-2.2-1.6-2.5c-0.3-0.9-0.1-0.2,0-0.5c0.8-0.6,3.6,2,4.9,0.6
		c-0.9-0.3-3.4-0.8-4-1.4c2-1.3,1.2-3.2,0.1-3.7C98.6,186.2,96.9,188,96,188.5z"/>
	<path id="XMLID_158_" class="st1" d="M82.4,267.1c0.6,2.4,4.9,2,4.2-1.1C86.1,263.3,81.7,264.2,82.4,267.1z"/>
	<path id="XMLID_159_" class="st1" d="M175.1,266.8c0.3,2.6,4.6,2.5,4.4-0.5C179.2,263.6,174.7,263.9,175.1,266.8z"/>
	<path id="XMLID_162_" class="st1" d="M117.7,289.5c0.2-0.5,1.4-1.9,1.8-2.2l0.5,2.8L117.7,289.5z M114.8,292c0.9,0.2,1.8-1.3,2.2-2
		l3.1,0.8c0.7,0.5-0.2,2.5,1.4,2.7c0-1-1.3-7.3-1.7-8c-0.4,0.2-0.4,0.3-0.8,0.8l-1.9,2.4c-0.4,0.5-0.8,1-1.3,1.6
		c-1.4,1.7-1,1.5-1,1.5L114.8,292z"/>
	<path id="XMLID_163_" class="st1" d="M188.7,223.4c0.1,0.7,0.2,1.3,0.4,1.9c0.3,1.8,0.2,1.4,0.7,1.3c0.2-0.4,0.2-0.4,0.1-1.1
		l-0.6-3.1l-7.2,1.4c0.1,1,0.4,3.5,0.9,4.1l0.6-0.1l-0.6-3.4l2.8-0.5c0.1,0.6,0.2,1.3,0.4,1.9c0.2,0.9,0,1.4,0.8,1.3
		c0.3-0.6-0.4-2.5-0.5-3.4L188.7,223.4z"/>
	<path id="XMLID_164_" class="st1" d="M116.7,178.8c0.1,0.9,1.2,6.5,1.5,7.1c0.8,0,1.5-0.2,2.3-0.4c1.9-0.4,1.7-0.2,1.7-0.9
		c-0.5-0.4-2.6,0.4-3.5,0.4l-0.6-2.7c0.6-0.3,1.2-0.3,1.8-0.4c1.9-0.4,1.5-0.1,1.5-0.8c-0.4-0.3,0-0.2-0.7-0.1
		c-0.6,0.1-1.6,0.5-2.6,0.5c-0.3-0.5-0.5-1.5-0.5-2.2c0.6-0.1,1.2-0.2,1.8-0.4c0.9-0.2,1.5,0,1.4-0.9
		C120.4,177.7,117.3,178.5,116.7,178.8z"/>
	<path id="XMLID_167_" class="st1" d="M155.3,186.4l2.2-1.7l-0.1,2.7l-1.8-0.8C155.4,186.5,155.4,186.5,155.3,186.4z M151.7,188.2
		l0.5,0.3c0.9-0.3,1.4-1.1,2.3-1.5l2.8,1.4c0,2.4-0.4,2.7,0.6,3l0.3-8.1C157.7,183.4,152.3,187.6,151.7,188.2z"/>
	<path id="XMLID_170_" class="st1" d="M158.5,281.4c0.6,0.2,1.9,1.2,2.3,1.5c-0.3,0.3-1.6,1.1-2.1,1.2L158.5,281.4z M161.5,283.5
		c1.7,0.6,1.7,1.8,2.9,1.1c-0.4-0.6-2.6-1.9-3.3-2.4c-0.8-0.6-2.7-2-3.5-2.3l0.8,8.1l0.7-0.3l-0.2-2.7L161.5,283.5z"/>
	<path id="XMLID_171_" class="st1" d="M74.2,222.6c0.1-0.7,0.3-1.3,0.5-2c0.5-1.7,0.4-1.4-0.2-1.5c-0.5,0.3-0.6,1.3-0.7,1.9
		c-0.2,0.7-0.4,1.4-0.5,2.1l7.1,1.8c0.2-0.8,0.4-1.5,0.6-2.2c0.5-1.9,0.7-1.7-0.1-1.9c-0.6,0.4-0.7,2.5-1.1,3.3l-2.7-0.7
		c0.1-0.8,1-2.9,0.6-3.4c-0.6,0-0.4-0.3-0.7,0.5c-0.2,0.8-0.3,1.9-0.7,2.7L74.2,222.6z"/>
	<path id="XMLID_172_" class="st1" d="M176.9,198.1c-0.4,0.2-1.2,0.9-1.6,1.2c-1.9,1.5-4.2,2.8-3.1,5c1.7,3.3,5.1-0.3,7.1-1.9
		c1-0.8,0.3-1.3-0.5-0.6l-3.2,2.6c-0.6,0.5-1.3,0.8-2.1,0.3c-0.5-0.3-1-1.1-0.8-2c0.3-1,3.7-3.1,4.5-4.1L176.9,198.1z"/>
	<path id="XMLID_173_" class="st1" d="M103.8,279.3c-1.5,1.7-2.6,4.7-3.9,5c-0.9,0.2-1.6-0.3-1.9-0.8c-0.7-1.3,0.9-3.1,1.5-4
		c0.1-0.2,2.1-2.8,0.9-2.5c-0.3,0.1-2.6,3.8-2.9,4.2c-1,1.6,0,3.2,1.3,3.6c1.8,0.7,2.9-1,3.5-2c0.4-0.6,2-2.9,2.1-3.4L103.8,279.3z"
		/>
	<path id="XMLID_176_" class="st1" d="M91.8,193.2c0.2-0.5,0.3-0.4,0.7-0.8c2.4-2,4.1,0.5,0.9,2.5C93,194.7,92.1,193.6,91.8,193.2z
		 M90.8,193c0.4,0.7,4.2,5.3,4.8,5.6l0.4-0.4c-0.5-0.9-1.7-1.8-2.1-2.8c1.1-0.6,3.2-2.5,1.4-4.1C93.6,189.8,91,192.6,90.8,193z"/>
	<path id="XMLID_179_" class="st1" d="M94.5,276.2c0.3-0.7,1-1.3,1.5-1.8c0.6,0.3,2.6,1.7,1.5,2.9C96.5,278.4,94.9,276.7,94.5,276.2
		z M92.3,277.5c-2,2.3-0.5,1.7-0.2,1.4c0.6-0.7,1-1.4,1.8-2.1c0.9,0.4,3.1,3.2,4.6,0.5c1-1.9-2.3-4-2.6-4.1L92.3,277.5z"/>
	<path id="XMLID_180_" class="st1" d="M189.5,239.2c3-1.3,0.3-5.5-1.9-3c-0.5,0.6-1.3,1.9-2.1,2.2c-1.4,0.5-2.2-1.3-1.2-2.2
		c0.7-0.7,1-0.6,0.6-1c-0.8-0.8-3,2.6-0.6,3.9c2.8,1.4,3.4-3.4,5.4-2.7c1.3,0.9-0.1,1.8-0.3,2.4L189.5,239.2z"/>
	<path id="XMLID_181_" class="st1" d="M129.5,176.8c-1.5,0.6-1.2,2.3-0.3,3.1c0.8,0.7,2.5,1.5,2.4,2.7c-0.1,0.7-0.6,1.2-1.4,1.1
		c-1-0.1-1.1-0.9-1.5-1c-1.2-0.4-0.1,2.1,2,1.7c1.2-0.2,2.2-1.5,1.4-2.9c-0.6-1.2-2-1.6-2.6-2.4c-0.4-0.6-0.3-1.3,0.3-1.6
		c0.9-0.4,1.3,0.4,1.7,0.6C132.9,178.7,131.4,176,129.5,176.8z"/>
	<path id="XMLID_182_" class="st1" d="M123.2,183.1l-0.5,0.4c1.5,3,6,0.2,3.5-2.2c-0.6-0.6-2.4-1.4-2.8-2c-0.5-1,0.5-1.9,1.6-1.3
		c0.6,0.3,0.1,0.3,0.8,0.4l0.2-0.3c-0.4-1-2.1-1.5-3.1-0.5c-1.1,1.2-0.1,2.5,0.8,3c0.8,0.5,2.6,1.2,2.2,2.5c-0.2,0.6-0.8,1-1.5,0.9
		C123.8,183.9,123.6,183.4,123.2,183.1z"/>
	<path id="XMLID_183_" class="st1" d="M182.3,219c0.1-0.4,2-2,2.4-2.3c1.8-1.6,2.2-1.6,1.9-2.5c-0.5,0.2-4.1,3.5-4.7,4.1
		c-0.8,0.8-1.2,0.9-1.3,1.4l8,0.6c-0.2-0.9-0.1-0.8-1.1-0.8L182.3,219z"/>
	<path id="XMLID_184_" class="st1" d="M76.3,227.3c-0.8-0.5-2.6-1.8-3.5-2c-0.1,0.9,0.4,1,1,1.4l4,2.5c-0.6,0.6-2.3,0.7-3.2,1
		c-2.4,0.6-2.6,0.4-2.7,1.4c1.2-0.2,2.6-0.7,3.9-1l3.7-1.1l0.1-0.1C79,228.8,77.2,227.9,76.3,227.3z"/>
	<path id="XMLID_185_" class="st1" d="M111.2,180.4l1.7,5.2c0.2,0.5,0.3,1.4,0.8,1.7c0.7-0.2,0.6,0.2,0-1.7
		c-0.2-0.7-0.5-1.3-0.6-1.9c2-0.7,2.9-0.6,2.6-1.4c-0.2-0.1,0-0.1-0.3-0.1c-0.1,0-0.2,0-0.3,0.1c-0.2,0-0.5,0.2-0.7,0.2
		c-0.5,0.2-0.9,0.3-1.5,0.4c-0.3-0.5-0.7-1.5-0.7-2.2l2.7-0.9l-0.1-0.5C114.3,179.2,111.6,180.1,111.2,180.4z"/>
	<path id="XMLID_186_" class="st1" d="M185.9,250.7c1.3-1,3.2-0.2,3.5-1.9c-1.3,0.2-2.6,0.8-3.9,1.1c-1.2,0.3-3.1-1-3.9-0.5
		c-0.1,0.6-0.1,0.5,0.7,0.7c1.3,0.3,2.3,0.4,3,1.1l2,2.1c0.3,0.4,0.3,0.5,0.7,0.5C188.4,252.6,187,252.2,185.9,250.7z"/>
	<path id="XMLID_187_" class="st1" d="M84.1,212.6c-0.8-0.4-2.2-0.9-2.7-1.4c-0.6-0.8-1.6-2.8-2.3-3.4c-0.8,1,0.7,1.8,1.5,3.6
		c-2.7,0.4-3.5-0.1-3.8,1.1c1.2,0,3.5-0.5,4.4-0.4c0.9,0.1,2.5,1.4,3.3,1.3C84.8,212.8,84.7,212.8,84.1,212.6z"/>
	<path id="XMLID_188_" class="st1" d="M189.5,247.6c0.3-0.5,0.3-1.5,0.5-2.1c0.4-2.2,0.5-1.7-0.2-1.9c-0.7,0.4-0.1,0.5-0.6,1.5
		c-1.5-0.1-5.5-1.2-6.5-1c-0.1,0.9,0.2,0.7,1.2,0.8l5.3,0.9c0,0.5-0.3,1.3-0.1,1.7L189.5,247.6z"/>
	<path id="XMLID_189_" class="st1" d="M135.2,296.3c-0.4-1.9-0.9-2.7-0.9-5c0-2.3,0.5-3.2,0.8-4.9c-0.8,0-0.8,0.1-1,0.8
		c-0.6,2.3-0.7,4.8-0.2,7.2C134.1,295.4,134.1,296.3,135.2,296.3z"/>
	<path id="XMLID_190_" class="st1" d="M80.1,245.9c-0.1-0.7-0.2-1.4-0.3-2c-0.3-2,0-1.4-0.7-1.5c-0.3,0.4-0.1,0.9,0,1.4
		c0.1,0.5,0.2,0.9,0.1,1.4l-6.5,1l0,0.5C73.5,247,79.1,246.1,80.1,245.9z"/>
	<path id="XMLID_191_" class="st1" d="M159,192.3c1.4,0.5,2.6,2,3.1,1.4c0.3-0.5-0.4-0.7-0.9-1c-0.4-0.2-1-0.6-1.2-0.9
		c0.7-1.5,4.6-6.6,2.8-5.9C162.6,186.2,159.1,191.7,159,192.3z"/>
	<path id="XMLID_192_" class="st1" d="M167.3,284c-0.8-2.5-4.5-8-6-6.7c0.2,0.4,1.5,1.2,1.9,1.6c3,2.9,3.3,5.7,3.8,6.5
		C167.7,284.9,167.6,284.9,167.3,284z"/>
	<path id="XMLID_193_" class="st1" d="M114.6,284.1c-0.6,0.6-1.3,3.9-1.7,5c-1,2.7-2.2,0.2-2.7,0.2c-0.5,0.1-0.3,0.6,0,0.9
		c0.5,0.5,1.6,1.1,2.5,0.6c0.9-0.5,1.6-3.5,2-4.8C115.1,284.4,115.4,284.3,114.6,284.1z"/>
	<path id="XMLID_194_" class="st1" d="M81.9,219.6c0.1-0.2,1.4-2.9,1.1-3.4c-0.7-0.1-0.3-0.3-0.7,0.4l-0.7,2.1
		c-1.1-0.1-4.1-1.5-5.6-2l-0.8-0.1c-0.2,0.8-0.5,0.4,1.3,1.1L81.9,219.6z"/>
	<path id="XMLID_195_" class="st0" d="M124.1,293.1c1.3,0.2,2.8,0.4,3-0.9c0.3-1.4-1.3-1.9-2.6-1.9L124.1,293.1z"/>
	<path id="XMLID_196_" class="st0" d="M94.5,276.2c0.5,0.5,2.1,2.2,3.1,1.1c1.1-1.2-0.9-2.6-1.5-2.9
		C95.5,274.8,94.8,275.5,94.5,276.2z"/>
	<path id="XMLID_197_" class="st0" d="M97.1,188.7c0.1,0.5,0.9,1.7,1.4,2c0.7-0.4,2.6-1.5,1.8-2.7C99.4,186.8,97.8,188.1,97.1,188.7
		z"/>
	<path id="XMLID_198_" class="st0" d="M187.2,229.8c-0.2,1.2,0,3.1,1.5,2.9c1.3-0.2,1.2-2.1,0.8-3.2L187.2,229.8z"/>
	<path id="XMLID_199_" class="st0" d="M91.8,193.2c0.3,0.4,1.2,1.5,1.6,1.7c3.2-2,1.4-4.5-0.9-2.5C92.1,192.8,92,192.7,91.8,193.2z"
		/>
	<path id="XMLID_200_" class="st1" d="M155.3,285.5c-0.3-0.7-1.3-3.3-1.8-3.5c-0.8,0.3-0.3,0.8,0.1,1.6c0.3,0.7,0.5,1.2,0.8,1.8
		c0.4,0.8,1.2,2.9,1.7,3.5C157.1,288.6,156.4,287.9,155.3,285.5z"/>
	<path id="XMLID_201_" class="st1" d="M133.8,184.3l0.7,0l0.4-5.6c0.2-2.1,0.2-1.5-0.3-1.8c-0.5,0.2-0.3-0.5-0.5,1.6
		c0,0.7-0.1,1.3-0.1,2C134,181.7,133.8,183.3,133.8,184.3z"/>
	<path id="XMLID_202_" class="st1" d="M178.8,215c0.4,0.9,1.3,0.1,3.5-0.9l3.1-1.5c0.3-0.2,0.1,0,0.3-0.3c-0.3-0.6,0.1-0.6-1.7,0.2
		c-0.7,0.3-1.1,0.5-1.8,0.8C181.5,213.6,179.2,214.5,178.8,215z"/>
	<path id="XMLID_203_" class="st1" d="M138,293.9c0.3-0.5-0.2-4.5-0.3-5.8c-0.1-2,0-1.5-0.7-1.5l-0.1,1.9c0.1,1.2,0.2,4.9,0.5,5.5
		L138,293.9z"/>
	<path id="XMLID_204_" class="st1" d="M186.9,240.9c-1-0.1-2.9-0.3-3.8-0.2l0,0.6l5.6,0.4c2.2,0.2,1.5,0.2,1.7-0.3
		c-0.2-0.5,0.5-0.3-1.7-0.5C188.1,241,187.5,240.9,186.9,240.9z"/>
	<path id="XMLID_205_" class="st0" d="M124.6,289.5c1.5,0.6,2.6,0,2.4-1.6c-0.7-0.6-1.1-0.7-2.1-0.7L124.6,289.5z"/>
	<path id="XMLID_206_" class="st0" d="M158.7,284.2c0.5-0.1,1.8-0.9,2.1-1.2c-0.4-0.3-1.7-1.3-2.3-1.5L158.7,284.2z"/>
	<path id="XMLID_207_" class="st0" d="M117.7,289.5l2.3,0.6l-0.5-2.8C119.1,287.5,117.8,289,117.7,289.5z"/>
	<path id="XMLID_208_" class="st0" d="M155.3,186.4c0.1,0.1,0.1,0.1,0.3,0.2l1.8,0.8l0.1-2.7L155.3,186.4z"/>
	<rect id="XMLID_209_" x="73.3" y="303" class="st2" width="356.2" height="2.7"/>
	<polygon id="XMLID_210_" class="st7" points="73.3,305.7 73.3,305.9 429.8,305.9 429.8,302.7 73,302.7 73,305.9 73.3,305.9 
		73.3,305.7 73.6,305.7 73.6,303.3 429.2,303.3 429.2,305.4 73.3,305.4 73.3,305.7 73.6,305.7 	"/>
	<rect id="XMLID_211_" x="73.3" y="163.4" class="st2" width="356.2" height="2.7"/>
	<polygon id="XMLID_212_" class="st7" points="73.3,166.1 73.3,166.3 429.8,166.3 429.8,163.1 73,163.1 73,166.3 73.3,166.3 
		73.3,166.1 73.6,166.1 73.6,163.7 429.2,163.7 429.2,165.8 73.3,165.8 73.3,166.1 73.6,166.1 	"/>
	<path id="XMLID_213_" class="st0" d="M329.9,328.4c1.9-1,2.3-5.2,5.6-7.1c0.2,1.4,0,2.6-0.4,3.8c-1.4,4.7-0.8,2.5-0.4,3.4
		c2-1.2,2.3-5.2,6-7c-0.3,3.1-1.7,5.4-1.8,7.2c1.6,0.2,0.9,0.6,2-1.2c1.5-2.4,0.7-1.8,0.9-3.6c0.1-0.8,0.2-0.7,0.1-1.7
		c-0.3-4.1-4.3,1.1-5.3,2.2c0.6-6.5-3-3.4-4.1-0.7c0-0.1-0.1-0.3-0.1-0.4c0-0.1-0.1-0.3-0.1-0.4c-0.1-0.1-0.1-0.2-0.2-0.4
		c-0.3-1.3,0.3-0.4-0.4-1.8c-1.9,0.3-1.3-0.2-2.1,1.4l-0.2-0.3l-0.6-0.7c-0.5-0.4-0.2-0.2-0.9-0.5c-1.4,0.8-2.7,2.9-3.4,4.1
		c0.4-1.3,1.2-2.4,0.9-3.8c-2.3,0-1.5,1.6-1.9,3c-0.4,1.7-1.5,2.9-0.5,4.5c1.5-0.4,0.6,0.5,1.6-1.7c1.6-3.9,2-3.2,2.9-5.1l0.4,2.2
		c1.8-0.7,0,0.2,1.4-1.1c0.1-0.1,0.7-0.8,0.8-0.9c0.7,0.9,0.6-0.9,0.5,1.8C330.7,325.4,329,326.9,329.9,328.4z"/>
	<path id="XMLID_214_" class="st0" d="M197.1,326.5c0.8-1.1,1.2-2.5,1.9-4.2c1.6-0.2,1.7-0.1,3.2,0.1c2,0.2,1.3,0.7,2.1-0.7
		c-1.4-1.2-2.3-0.4-4.9-0.7l1-3.6c2.6,0,4.7,1.5,6-0.2c-0.5-0.3-9.8-2.3-11.1-1.4c-0.9,0.6-1.2,2.5,0.1,4.1
		c-0.2-3.6,0.5-3.2,3.8-2.9c0.5,2.9-1.3,4.4-1.4,4.9c-0.5,1.1-0.1,0.5-0.4,1.9c-1.1,5.2-4.4,1.2-3.2,4.8c5-2.6,9.6,2.1,10.2-1.6
		c-0.9-0.5,0.3-0.2-1.5-0.2L197.1,326.5z"/>
	<path id="XMLID_215_" class="st0" d="M178.1,336.9h2c2.9-1.9,3.6-2.4,5.3-7.1c0.6-1.7,1-3,1.5-4.7c1.5-5.4,0.5-4-0.5-4.5
		c-0.5,2.9-2.9,6.7-5.2,7.4c0-3.6,1.8-5.3,3.6-6.2l0.9-0.5c-4.1-1.8-6,4.5-5.6,6.9c2.7,0.9,4.1-0.9,5.4-3.2
		c-0.4,2.7-1.7,6.1-3.2,8.2c-2.4,3.7-3.5,2.7-7.3,1.2C175.6,336.2,176.6,335.8,178.1,336.9z"/>
	<path id="XMLID_216_" class="st0" d="M354.5,336.9h2.2c2.5-1.8,3.3-2,5.1-7c0.7-2,3-7.4,1.6-9.3c-1.4,1.4-2.3,6.4-5.8,7.3
		c-0.1-2.4,0.9-4.5,2.7-5.7c1.1-0.7-0.3,0.2,0.8-0.5c0.5-0.3,0.4,0.4,0.6-0.4c0.1-0.2,0.2-0.1,0.3-0.2c-2.4-1-3.5,0.4-4.7,2.5
		c-2.5,4.4,0,7.7,4.5,1.3c-0.2,2.7-1.8,6.2-3.1,8.2c-2.1,3.4-3.8,2.6-7.4,1.1C352,336,353,335.8,354.5,336.9z"/>
	<path id="XMLID_217_" class="st0" d="M153.7,328.6c2.1-2.4,2.8-6.1,5.5-7.2c0.1,1.6,0,2.6-0.5,4c-0.1,0.3-0.6,1.7-0.6,1.7
		c-0.2,1.4-0.4,0.7,0.5,1.4c2-1.6,1.9-5.3,5.9-7.2c-0.3,2.8-1.8,5.5-1.8,7.2c1.5,0.1,1.2,0,1.9-1.3c1.4-2.1,1.4-1.6,1.1-2.3
		c-0.8-1.7,0-0.5,0-2.5l-0.4-1.6c-1.6-1.5-4.1,2.2-5,3.2c0.2-7.9-4.1-1.4-4.8-0.1c0.2-1.6,0.5-1.4,0.1-3.2c-1.7-0.3-0.7-0.3-1.8,0
		c-0.3,1.3-0.2-0.1,0.1,0.8c0.3,0.9,0.8,0.7,0.2,3.1C152.8,329.5,152.7,327.5,153.7,328.6z"/>
	<path id="XMLID_218_" class="st0" d="M392.5,328.4c1.4-0.7,0.7-0.4,1.4-1.9c1.1-2.3,0.5-0.2,0.1-1.5c-0.3-1.4,0.4-3.1,0.9-4.6
		c2.5-6.8,2.9-5.5,5.3-7l-2.5-0.9c-0.9,1.6-1.4,2.1-2.3,3.8c-1.4,2.8-3.4,10.2-7.7,11.1c0.5-1.9,1.9-4.3,3.5-5.4
		c1.1-0.7-0.3,0.2,0.9-0.5l0.9-0.5c-4.2-1.6-6.4,5.1-6.6,6.5l1.1,1c1.8-0.7,3.7-2.7,4.8-4.1C392.3,327.3,391.1,326.4,392.5,328.4z"
		/>
	<path id="XMLID_219_" class="st0" d="M101.4,317.4c1-0.1,2-0.1,2.9-0.2c2.7-0.3,1.5,0,1.8-1.3c-1.6-1.1-1.4-0.2-3.5,0
		c-3.2,0.3-7,0.9-9.8,2.1c0,2.7,0.4,2.5,1.5,4c0-2.3-2.4-3.6,5.6-4.4c-2.1,8.6-5.3,8.2-3.5,11.2c1.7-0.2,1.2-0.4,1.8-2.5
		C98.8,323.8,100.2,319.2,101.4,317.4z"/>
	<path id="XMLID_220_" class="st0" d="M269.1,318.1c-0.2,2.1,0,2.7,1.7,3.7l-0.6-2.8c1.7-0.8,3.8-1.3,6-1.5
		c-1.8,7.6-4.1,7.3-4.1,9.6c0.1,2.3-0.2,0.7,0.7,1.5c1.4-0.1,0.9-0.2,1.4-2.1c0.7-2.6,2.1-7.1,3.4-9.2c0.9-0.1,2-0.1,2.9-0.2
		c2.7-0.3,1.5,0,1.8-1.3C281.1,314.9,270.9,316.9,269.1,318.1z"/>
	<path id="XMLID_221_" class="st0" d="M313.5,320.3c3.7-8.3,2.6-4.9,5.1-6.3l-2.6-0.9c-3.7,2.8-1.6,6.4-5.8,8
		c1.5,1.2,0.7-0.3,1.2,1.4l-2.8,8.8c-0.3,2,0,1.4,1.1,1.8l3-11.3l2.6-0.7C314.5,320.7,314.3,321,313.5,320.3z"/>
	<path id="XMLID_222_" class="st0" d="M372.2,322.2c-1-1.9-0.7-2.2,0.5-3.8c0.8-1.3,1.4-1.9,3.6-1.6c0.2,3-0.7,5.2-1.7,7.6
		c-2.3,5-3.3,2.5-5,3.7c3.7,1.4,4.6,0.3,6.1-2.9c1.2-2.6,2.3-5.2,2-8.4c-1.5-0.7-2.1-0.8-4.2-0.8c-1.4,1.7-3.2,2.4-3.2,5.4
		C371.2,321.9,370.7,321.7,372.2,322.2z"/>
	<path id="XMLID_223_" class="st0" d="M137.1,320.3c3.5-8.1,2.3-4.7,5.2-6.3l-2.6-0.9c-1.4,1-2,2.4-2.8,4.3c-1.2,2.7-0.2,2.6-3,3.6
		l0.5,0.4c1.9,2-4,8.8-1.5,11.7c0.6-0.7,0.2,0.1,0.6-0.9l1.4-6.5c0.3-0.7,0.9-3,1.2-3.4c1.1-1.9,0.9-0.3,2.8-1.3L137.1,320.3z"/>
	<path id="XMLID_224_" class="st0" d="M176.2,328.5c2.5,0,2.9-4.7,2.7-6.4c-0.4-4.1-4.4,1.3-5,1.9c0.8-4,0.2-4.1-2.3-2.2
		c1.4,0.7-1.5-0.5,0.5,0.1l-1,6.5c2.2-0.2,1.8-1.7,3.2-3.4c1-1.4,1.9-2.5,3.1-3.2c0.1,0.2,0.2,0.1,0.2,0.9
		C177.7,324.7,175.8,326.7,176.2,328.5z"/>
	<path id="XMLID_225_" class="st0" d="M355.3,325.3l-0.1-3.2c-0.5-3.8-4.3,1-5,2c0.3-2.8,1.1-5.2-2.3-2.2l1.3,0.3l-1.9,6.2
		c2.2-0.2,2-1.6,3.2-3.4c1.2-1.5,2-2.7,3.4-3.3c-0.1,2-1.9,6.1-1.3,7C354.2,328.1,355.3,325.4,355.3,325.3z"/>
	<path id="XMLID_226_" class="st0" d="M381,321.9c-0.2-0.9,0.5,0-0.6-1.2c-1.8,0.2-0.5-0.2-2,1.1l1.3,0.3l-1.8,6.1
		c2.8,0,2-4.2,6.6-6.7c-0.1,2.4-1.7,5.8-1.4,7c1.4,0.1,0.7,0.2,1.6-1.3c0.5-0.7,1-1.5,1.1-1.9v-3.2c-0.2-1.8-2.5-2.2-4.3,1.4
		C380.7,322.4,381.2,323,381,321.9z"/>
	<path id="XMLID_227_" class="st0" d="M121.5,324.1c0.4-1.7,0.9-1.9,0.3-3.4c-2.3-0.2-0.8-0.2-2.4,1.1l1.4,0.2l-1.8,6.1
		c2.2,0.2,0.6,0.4,3.2-3.2c0.8-1.2,2.2-2.7,3.4-3.4c-0.3,4.9-2.1,5.5-1.4,6.9c1.4,0.3,2.3-2.3,2.7-3.4c0.1-0.8-0.4,1.3-0.2-1.4
		C127,317.2,122.2,323,121.5,324.1z"/>
	<path id="XMLID_230_" class="st0" d="M229.9,327.7c0.4-1.8,1.1-2.7,1.9-4c1.1-1.6,1.4-1.9,3.6-2.2
		C234.9,323.8,231.8,326.9,229.9,327.7z M234.6,328.5c1.6-0.8,1.8-2.8,1.8-3c-0.2-1-0.9,1.6-0.2-1.6c0.4-1.5,0.4-0.5,0.5-2.2
		c-0.6-0.4-2.6-1-3.4-0.9c-1.2,0.2-5,4.6-4.3,7.7c2.7,0.4,3.9-2.2,5.6-3.7C234.1,327.9,233.5,326.8,234.6,328.5z"/>
	<path id="XMLID_231_" class="st0" d="M296.5,321l0.2,0.9c0.4,2.7-1.4,4.3-1.5,6.3c2.1,0.3,0.6,0.6,3.2-3.1c0.9-1.3,1.7-2.5,3.4-3.5
		c-0.1,3.7-0.6,3.4-1.4,5.6c-0.6,1.9,0.5,1.9,1.4,0.5c1.1-1.7,0.9-2.2,1.1-4.3c0.5-5.6-3.8-0.8-5.1,0.9
		C298.3,322.5,299.4,320.1,296.5,321z"/>
	<path id="XMLID_234_" class="st0" d="M111.1,327.8c0-1.9,0.6-2.6,1.6-4c1.2-1.6,1.2-1.9,3.7-2.3C115.7,324.1,113,326.8,111.1,327.8
		z M115.6,328.4c1.4-0.5,0.4,1.1,1.4-1.5c0.2-0.3,0.2-0.6,0.2-0.9c0.4-4.7,0.3-1.5,0.8-4.5l-1.7-0.6c-0.7-0.2-0.5-0.2-1.5-0.4
		c-2,1.3-5.2,4.7-4.6,7.9c2.8,0.4,3.8-2.1,5.5-3.6C115.3,326.7,114.7,327,115.6,328.4z"/>
	<path id="XMLID_235_" class="st0" d="M400.4,327.7c0.4-2.1,1-2.7,2-4.2c2.1-2.8,2.5-1.3,3-2.2c0-0.2,0.2-0.2,0.4-0.2
		c-3.8-1.3-6.8,5-6.2,7.5c2.9,0.3,3.7-2.4,5.5-3.8c-0.6,4.1-0.8,2.9,0.2,3.9c1-0.7,1.7-2.4,1.5-3.3c-0.5-2.9,1.4-1.9,0.1-4.1
		c-1.7,0.6-0.3-0.2-1.4,1.7C404.3,324.5,402.4,326.8,400.4,327.7z"/>
	<path id="XMLID_236_" class="st0" d="M257.3,323.9c0.5-2.1,1.1-4.1-1.4-2.8c1.2,1.7-1.1,5.2-1.3,7.2c2-0.2,1,0.3,2-1.6
		c1.1-2,2.4-4.4,4.5-5.1c0,2.6-1.7,5-1.4,7c2.3-0.5,2.4-3.5,2.5-5.2c0.3-1.9,0.1-1.6-0.3-2.4C260.1,320.4,260.5,321,257.3,323.9z"/>
	<path id="XMLID_237_" class="st0" d="M211.8,321.6c-0.6,2.2-1.5,2.3-2.3,4.1c0.9-0.3,0.4,0,1.2-0.6c0.5-0.3,0.2-0.2,0.5-0.5
		c-0.5,2.3-1.2,3.1,0.4,4.2l1.8-3.3c-2,1.1-0.5,0.2-1.1-0.2c0.5-2.5,1.3-4.9,2.3-7.1c0.5-1,0.9-2,1.5-2.9c0.8-1.1,1.4-1.1,2.2-1.4
		l-1.2-1.1C213.8,314.1,213.7,318.5,211.8,321.6z"/>
	<path id="XMLID_238_" class="st0" d="M215.9,327.7c0-2.7,1.2-4.5,1.9-6.7c-2.1,0.3-2.1,0.7-2.5,2.8c-0.4,1.8-0.5,2.6-0.5,4.5
		c2.5,0.4,3.6-1.7,4.9-3.5l-0.1,3.3l0.2,0.3c2-1.2,0.9-1.8,1.2-3.4c0.3-1.2,1.2-2.8,1.6-4c-2.4,0.1-0.6-0.9-3.6,3.4
		C218.2,325.7,217.4,327.1,215.9,327.7z"/>
	<path id="XMLID_241_" class="st0" d="M140,328c-0.3-1.6-0.1-2.9,0.7-4.5c0.8-1.6,1.7-1.6,3.6-2C144.1,324.8,143.2,327.9,140,328z
		 M138.7,327.9c3.7,1.3,4.9,0.7,6.2-2.9c1.6-4.7-0.5-4.2-4-4.3C139.8,322.6,138.1,325,138.7,327.9z"/>
	<path id="XMLID_244_" class="st0" d="M316.4,328c-0.3-1.6-0.1-3,0.6-4.5c0.9-1.7,1.6-1.6,3.6-2.1
		C320.4,325.1,319.5,327.8,316.4,328z M315.1,327.9c7,2.9,6.7-6,6.4-7c-0.5-0.1-3.6-0.3-4.2-0.3
		C316.2,322.5,314.5,324.9,315.1,327.9z"/>
	<path id="XMLID_245_" class="st0" d="M249,328.4c-1.4-2.4-0.5-7,3.7-6.7c-0.3,3.4-1,5.2-3.5,6.4c0,0,0,1.5,2.2,0
		c0.6-0.4,1.1-1.2,1.4-1.8c2.4-4.5,1.2-6-3.3-5.5C248.4,322.6,244.7,327.4,249,328.4z"/>
	<path id="XMLID_246_" class="st0" d="M241.4,320.2c0.9-1.5,0.6-2.1,1.8-3.3c0.1-0.1,0.5-0.2,0.5-0.5c0.1-0.2,0.2-0.2,0.3-0.2
		c-4.2-0.9-1.4,3.5-5.5,4.8c0.1,0.1,0.3,0.2,0.3,0.3l0.3,0.3c1.1,1.9-1.8,4.3-0.5,6.8c1.7,0.5,2.5-0.6,3.1-2l-2.3,1.1l1.6-5.9
		l2.5-0.4C242.3,320.5,242.4,321.2,241.4,320.2z"/>
	<path id="XMLID_247_" class="st0" d="M106.4,323.2c0.5-1.9,0.8-0.9,0.3-2.4c-2.7,0.9-1.4,1.2-1.9,3.1c-0.2,0.7-0.7,1.7-0.8,2.4
		c-0.5,2.4-0.1,1.5,0.4,2.2c2.2-0.9,0.3-1.7,4.4-6.7c0.8,1.4-0.2,0,0.2,1.2c0.3,1.1-0.4,0.3,0.7,0.8c0.9-1.3,0.7-1.5,0.5-3.1
		c-1.4,0-1.5,0-2.3,0.9c-0.2,0.2-0.5,0.7-0.5,0.8C106.7,323.1,107.2,322.6,106.4,323.2z"/>
	<path id="XMLID_248_" class="st0" d="M146.8,328.4c1.4-0.4,0.7,0.2,1.5-1.8c1.2-3.2,1.4-2.7,3-5l0.2,1.3c0.4,1.2-0.2,0.3,0.7,0.8
		c0.8-1.3,0.6-1.5,0.6-3.1c-2.6-0.1-3.5,2.2-4.6,4l1-3.8c-2.5-0.1-1.5,1.5-1.9,2.9c-0.3,1.1-1.1,2.4-1,3.5
		C146.5,328.5,146.4,327.8,146.8,328.4z"/>
	<path id="XMLID_249_" class="st0" d="M280.7,328.4c2-0.7,0.2,0.3,2.3-3.6c0.8-1.5,1.4-2,2.1-3.1c0.5,1-0.1,1.1,0.9,2.2
		c0.7-1,1-1.7,0.5-3c-1.9-0.3-2.7,0.9-4.3,3.8l1-3.8c-2.5,0.1-1.5,1.5-1.9,3C280.7,326,279.6,326.7,280.7,328.4z"/>
	<path id="XMLID_250_" class="st0" d="M224.3,327.9c-0.4-2.9,0.6-5.3,2.6-6.4l0.2,0.3l0.7,2.2c0.4-0.3,1.5,0,0.7-3.1l-2.9-0.2
		c-1.3,1.1-2.1,2.7-2.5,4.6c-0.8,3.1,0.6,3.1,3.3,3.3c0.7-0.8,1.1-1.3,1.7-2.5C226.4,327,227.2,328.1,224.3,327.9z"/>
	<path id="XMLID_251_" class="st0" d="M131.2,327c0.5-3.4-2-4,0.1-5.9l0.4,0.6l0.2,0.3c0.1,0.3,0.3,0.7,0.3,0.8
		c1.2-1,1.1-0.4,0.8-2.4c-1.5,0.7-2.1,0.4-3.8,1.3c-0.2,2.6,0.9,2.7,1,5.1c-1.6,1.5-1.7,0.3-3.6,1.4
		C129.1,329,129.5,328.5,131.2,327z"/>
	<path id="XMLID_252_" class="st0" d="M292.7,321.6c-0.4,1.3-1,1.9-1.6,2.9c-0.5,0.8-0.5,0.6-1.1,1.2c-1,1.1-0.5,0.3-0.9,1.3
		c1.4-0.6,2.4-1.9,3-2.6c-0.4,1.6-1,2.6-0.3,4c1.7-0.4,0.2,0.7,2.1-2.9l-0.7-0.3c0.5-1.7,1-2.1,0.9-4
		C293,321.3,293.5,321.1,292.7,321.6z"/>
	<path id="XMLID_253_" class="st0" d="M209.5,325.7c-1.1,0.4,0-0.2-0.9,0.5c-1.1,0.8,0,0.8-2.1,1.6c-0.1-2.4,2.3-5.1,3.4-6.1
		l1.8-0.1l-1.8-1.1c-5.8,3.8-5.6,10.4-2.3,7.4C208.4,327.2,209.1,326.6,209.5,325.7z"/>
	<path id="XMLID_254_" class="st0" d="M289.1,327l-1.6,0.7c0-2.6,2.3-4.7,3.5-6l1.7-0.1l-1.8-1.1c-2.1,1.5-4.9,4.3-4.6,7.9
		c0.6,0.1,1.3,0.2,1.9-0.1C289.9,327.5,288.9,328.1,289.1,327z"/>
	<path id="XMLID_255_" class="st0" d="M307.5,327c0.5-3.7-2.4-4.1,0.5-6.2c-1.9,0.2-1.5,0.2-2.7,1.2c0.3,4.1,3.8,5.3-2.4,5.8
		c1.2,0.9-1.2,0.1,1.4,0.7C305.6,328.9,306.5,328,307.5,327z"/>
	<path id="XMLID_256_" class="st0" d="M344.8,327.6c0.5-0.7,0.9-1.4,0.9-1.9c0.1-0.5,0.1-1.5,0.5-2.7c0.7-3-1.2-2.7-2.2-0.9l1.1-0.5
		c-0.4,2.7-1.2,4.5-2.2,6.6C344.2,328.7,344,328.8,344.8,327.6z"/>
	<path id="XMLID_257_" class="st0" d="M169.8,321.4c-0.9-1.6-1.7-0.1-2,0.3l0.4,0.7c0.1-0.1,0.3,0.2,0.4,0.2l-1.5,6
		c0.8-0.2,1.1-0.1,2.1-2.1c0.7-1.6-0.1-0.2,0.4-2.3C169.6,323.2,170.3,322.1,169.8,321.4z"/>
	<path id="XMLID_258_" class="st0" d="M245.1,325.3c0.2-1.3,2.1-5.3-0.8-4.2c0.1,0.2,0,0.4,0,0.5c0.1,1.3,0.4,0.9-0.4,3.2
		c-0.5,1.4-1,2.3-1.4,3.7C244.8,328.3,244.9,327.2,245.1,325.3z"/>
	<path id="XMLID_259_" class="st0" d="M397.1,320.9c0.7,1.9-0.8,5.8-1.7,7.3c2.3,0.5,2.3-1.1,2.5-2.7c0.1-0.9,0.9-2.3,0.8-3.4
		c-0.1-1.1,0-0.3-0.5-1.1L397.1,320.9z"/>
	<path id="XMLID_260_" class="st0" d="M397.8,319.1c3.1,0,1.9-0.1,2.5-1c-0.4-0.2,0.6-1.1-1.3-0.3
		C398.3,318,398.1,318.6,397.8,319.1z"/>
	<path id="XMLID_261_" class="st0" d="M345.3,319.2c2.9-0.2,2.1-0.4,2.5-1.1C347.8,318,347,316,345.3,319.2z"/>
	<path id="XMLID_262_" class="st0" d="M169.2,318.9c1.6,0.5,1.6,0,2.3-0.9c-0.1-0.1,0.4-0.9-1.3-0.4
		C169,318,169.3,318.6,169.2,318.9z"/>
	<path id="XMLID_263_" class="st0" d="M245.1,319.1c1.7,0.2,1.7-0.1,2.3-1c-0.1-0.1-0.8-1.5-2.2,0.4
		C244.9,319.1,245.3,318.4,245.1,319.1z"/>
	<path id="XMLID_264_" class="st0" d="M308.4,322.8c0.5-0.9,1.1,0.4,0.8-2.5C307.8,321.1,307.8,321.8,308.4,322.8z"/>
</g>
</svg>
